<svg width="512" height="512" viewBox="0 0 512 512" fill="none" xmlns="http://www.w3.org/2000/svg">
  <rect width="512" height="512" rx="128" fill="#1D7A5B"/>
  <path d="M120 168C120 141.49 141.49 120 168 120H344C370.51 120 392 141.49 392 168V344C392 370.51 370.51 392 344 392H168C141.49 392 120 370.51 120 344V168Z" fill="#F7F0E4"/>
  <path d="M176 208C176 194.745 186.745 184 200 184H312C325.255 184 336 194.745 336 208V328C336 341.255 325.255 352 312 352H200C186.745 352 176 341.255 176 328V208Z" fill="#D66A32"/>
  <path d="M224 168H288V208H224V168Z" fill="#1D7A5B"/>
  <rect x="208" y="232" width="96" height="16" rx="8" fill="#F7F0E4"/>
  <rect x="208" y="264" width="72" height="16" rx="8" fill="#F7F0E4"/>
  <rect x="208" y="296" width="84" height="16" rx="8" fill="#F7F0E4"/>
  <circle cx="344" cy="344" r="56" fill="#16392B"/>
  <path d="M342.787 312C323.675 312 310 323.454 310 338.635C310 350.915 318.683 359.194 333.691 362.194L342.787 364.001C351.041 365.645 355.208 369.076 355.208 374.528C355.208 381.202 348.637 385.999 339.091 385.999C330.595 385.999 323.822 382.998 318.479 376.883L311 384.879C318.683 393.653 329.383 398 341.133 398C360.445 398 374 386.445 374 370.924C374 358.278 365.779 350.177 350.638 347.178L341.541 345.37C333.757 343.831 328.792 340.934 328.792 335.365C328.792 328.816 334.992 324 343.879 324C351.61 324 357.283 326.816 362.12 331.845L369.31 323.452C362.595 316.659 353.263 312 342.787 312Z" fill="#F7F0E4"/>
  <path d="M340 302H350V408H340V302Z" fill="#F7F0E4"/>
</svg>
